<svg xmlns="http://www.w3.org/2000/svg" xmlns:xlink="http://www.w3.org/1999/xlink" width="290" height="290" viewBox="0 0 290 290"><defs><clipPath id="a"><path d="M25.3,2941.356c-14.434,78.483-64.509,144.5-144.085,144.5s-144.085-64.7-144.085-144.5,64.509-144.5,144.085-144.5,159.057,63.094,144.085,144.5" transform="translate(262.867 -2796.853)" opacity="0.995"/></clipPath></defs><g transform="translate(-1533.602 -418.021)"><g transform="translate(1533.602 418.021)"><g transform="translate(0)"><path d="M24.514,2941.853c-14.394,78.753-64.333,145-143.691,145s-143.69-64.918-143.69-145,64.332-145,143.69-145,158.622,63.311,143.691,145" transform="translate(263.576 -2796.853)" opacity="0.158"/><g clip-path="url(#a)"><g transform="translate(63.896 -10.636)"><g transform="translate(0 0)"><g transform="translate(0 237.936)"><path d="M80.462,94.689v16.222c-12.6-.344-25.784,0-37.36,0-22.812,0-33.8-4.2-39.928-3.166C.451,90.566-1.252,68.576,1.132,45.9,11.686,45.9,58.672,49.336,80.462,94.689Z" transform="translate(0.003 -45.9)"/></g><g transform="translate(9.618)"><path d="M121.923,43.319c-8.311-65.143,23.468-113.757,28.235-125.438L-.83-76.243C3.6-64.561,28.038-3.726,24.393,43.319c-1.7,19.928-12.257,47.071-19.747,66.655,42.219,9.277,97.716,8.933,138.232,0C135.728,90.734,122.844,75.05,121.923,43.319ZM75.464,97.949h-3.4a3.519,3.519,0,0,1-3.4-3.779,3.749,3.749,0,0,1,3.4-3.779h3.4a3.78,3.78,0,0,1,0,7.559Z" transform="translate(0.83 82.119)"/></g><g transform="translate(2.497 196.29)"><path d="M82.444,117.421C58.27,75.16,12.987,70.694.73,70.35A161.9,161.9,0,0,1,10.6,32.9c42.219,9.277,100.44,9.62,143.68,0,4.426,11.682,7.49,20.958,9.874,37.45C151.9,70.694,106.617,75.16,82.444,117.421Z" transform="translate(-0.73 -32.9)"/></g><g transform="translate(87.615 237.936)"><path d="M102.677,108.775c-10.214-.344-43.24,2.31-76.947,1.623V94.689C47.861,49.679,94.846,46.244,104.72,45.9,107.444,68.92,106.819,86.4,102.677,108.775Z" transform="translate(-25.73 -45.9)"/></g></g></g></g></g></g></g></svg>