<svg xmlns="http://www.w3.org/2000/svg" xmlns:xlink="http://www.w3.org/1999/xlink" width="290" height="290" viewBox="0 0 290 290"><defs><clipPath id="a"><path d="M25.3,2941.853c-14.434,78.753-64.509,145-144.085,145s-144.085-64.918-144.085-145,64.509-145,144.085-145,159.057,63.311,144.085,145" transform="translate(262.867 -2796.853)"/></clipPath></defs><g transform="translate(-67 -381)"><g transform="translate(67 381)"><path d="M25.3,2941.853c-14.434,78.753-64.509,145-144.085,145s-144.085-64.918-144.085-145,64.509-145,144.085-145,159.057,63.311,144.085,145" transform="translate(262.867 -2796.852)" opacity="0.155"/><g clip-path="url(#a)"><g transform="translate(-8.789 -4.262)"><path d="M134.732,320.011c0-9.827,51.283-78.341,48.732-88.094-19.238-72.6-23.829-179.672-14.5-178.719,36.947,3.813,41.683,44.661,56.768,67.542,11.514,17.454,24.777,29.188,34.833,35.274,5.32,4.987,2.7,10.414-5.611,15.18.729,4.253,6.267,10.267,11,12.394a4.991,4.991,0,0,1,2.988,5.06c-.364,4.473-1.53,9.607-3.206,11.22,8.745-1.173,12.534,7.554,10.785,9.387l-6.413,3.593s15.085,22.294.656,33.221h-.073C238.557,255.6,220.985,260.925,216.4,332.3l-13.919,6.788h-23.91" transform="translate(-47.576 -38.131)" fill="#fbfaf3"/><path d="M181.747,37.109c22.263,53.351,7.066,64-35.565,76.472,1.457.513-25.714,44.659,19.195,99.924,27.1,38.71-10.122,87.6-34.972,113.121-29.564,6.449-8.248,29.321-62.83-10.555L37.422,284.616S.45,225.363,15.754,158.408c-.291.22,8.389-61.854,51.821-88.255-.8.587,29.717-40.662,84.225-34.8" transform="translate(-12.043 -34.786)"/></g></g></g></g></svg>