<?xml version="1.0" encoding="UTF-8" standalone="no"?>
<svg
   xmlns:dc="http://purl.org/dc/elements/1.1/"
   xmlns:cc="http://creativecommons.org/ns#"
   xmlns:rdf="http://www.w3.org/1999/02/22-rdf-syntax-ns#"
   xmlns:svg="http://www.w3.org/2000/svg"
   xmlns="http://www.w3.org/2000/svg"
   xmlns:sodipodi="http://sodipodi.sourceforge.net/DTD/sodipodi-0.dtd"
   xmlns:inkscape="http://www.inkscape.org/namespaces/inkscape"
   width="290"
   height="290"
   viewBox="0 0 290 290"
   version="1.1"
   id="svg1812"
   sodipodi:docname="feet.svg"
   inkscape:version="1.0.1 (c497b03c, 2020-09-10)">
  <metadata
     id="metadata1816">
    <rdf:RDF>
      <cc:Work
         rdf:about="">
        <dc:format>image/svg+xml</dc:format>
        <dc:type
           rdf:resource="http://purl.org/dc/dcmitype/StillImage" />
      </cc:Work>
    </rdf:RDF>
  </metadata>
  <sodipodi:namedview
     pagecolor="#ffffff"
     bordercolor="#666666"
     borderopacity="1"
     objecttolerance="10"
     gridtolerance="10"
     guidetolerance="10"
     inkscape:pageopacity="0"
     inkscape:pageshadow="2"
     inkscape:window-width="1920"
     inkscape:window-height="1054"
     id="namedview1814"
     showgrid="false"
     inkscape:zoom="3.1517241"
     inkscape:cx="83.922319"
     inkscape:cy="145"
     inkscape:window-x="0"
     inkscape:window-y="26"
     inkscape:window-maximized="0"
     inkscape:current-layer="g1810" />
  <defs
     id="defs1800">
    <clipPath
       id="a">
      <path
         d="M25.3,2941.853c-14.434,78.753-64.509,145-144.085,145s-144.085-64.918-144.085-145,64.509-145,144.085-145,159.057,63.311,144.085,145"
         transform="translate(262.867 -2796.852)"
         id="path1797" />
    </clipPath>
  </defs>
  <g
     transform="translate(-417.958 -431.447)"
     id="g1810">
    <path
       d="M24.949,2941.682c-14.416,78.66-64.43,144.829-143.908,144.829s-143.908-64.842-143.908-144.829,64.43-144.829,143.908-144.829c71.848,0,143.618,51.677,145.7,122.093a108.747,108.747,0,0,1-1.788,22.736"
       transform="translate(681.178 -2365.353)"
       opacity="0.158"
       id="path1802"
       style="fill:#014edf;fill-opacity:1" />
    <g
       transform="translate(417.958 431.447)"
       clip-path="url(#a)"
       id="g1808">
      <g
         transform="translate(39.076 -8.614)"
         id="g1806">
        <path
           d="M51.569,121.282C28.563,158.691,44.393,187.41,1.336,201.5.6,201.716.7,202.776.07,206.591c-.844,5.617,5.488,6.994,8.337,9.326,4.327,3.6,6.543-4.133,10.659-6.041-2.216,1.59-6.015,5.829-5.277,7.1,2.111,3.6,6.648,0,8.865-1.272,4.221-2.437,6.332,2.014,11.5-1.06,10.764-6.57,16.041-29.885,30.5-34.336,53.293-16.108,12.875-25.328,24.8-51.5-7.282,3.5-15.091,12.717-19.418,19.181,7.071-16.214,15.2-17.062,21.423-24.48,4.96-5.829,29.127-48.006,30.921-46.735.106.106,1.266,18.757,1.372,19.711.95,9.644,2.744,23.844,4.538,33.806,3.588,20.771,14.352,27.977,12.558,53.941-.739,10.809,5.065,4.981.106,17.7-1.161,3.073,2.111,4.557,4.01,5.193,17.413,5.087,13.191-18.122,19.523-27.023,5.277-7.418-10.553-33.488-2.533-42.708,6.226-7.206,17.624-13.989,14.036-25.328-2.005-6.252-19-14.095-19.734-20.983-2.744-25.222,7.071-59.239,7.915-85.945C164.276,1.743,91.143-6.1,90.4,8.632c-2.322,48.642-12.242,69.413-38.835,112.65Z"
           transform="translate(0.007 0.005)"
           fill-rule="evenodd"
           id="path1804" />
      </g>
    </g>
  </g>
</svg>
