<?xml version="1.0" encoding="UTF-8" standalone="no"?>
<svg
   xmlns:dc="http://purl.org/dc/elements/1.1/"
   xmlns:cc="http://creativecommons.org/ns#"
   xmlns:rdf="http://www.w3.org/1999/02/22-rdf-syntax-ns#"
   xmlns:svg="http://www.w3.org/2000/svg"
   xmlns="http://www.w3.org/2000/svg"
   xmlns:sodipodi="http://sodipodi.sourceforge.net/DTD/sodipodi-0.dtd"
   xmlns:inkscape="http://www.inkscape.org/namespaces/inkscape"
   width="290"
   height="290"
   viewBox="0 0 290 290"
   version="1.1"
   id="svg12"
   sodipodi:docname="hair--blueBG.svg"
   inkscape:version="1.0.1 (c497b03c, 2020-09-10)">
  <metadata
     id="metadata18">
    <rdf:RDF>
      <cc:Work
         rdf:about="">
        <dc:format>image/svg+xml</dc:format>
        <dc:type
           rdf:resource="http://purl.org/dc/dcmitype/StillImage" />
        <dc:title></dc:title>
      </cc:Work>
    </rdf:RDF>
  </metadata>
  <defs
     id="defs16" />
  <sodipodi:namedview
     pagecolor="#ffffff"
     bordercolor="#666666"
     borderopacity="1"
     objecttolerance="10"
     gridtolerance="10"
     guidetolerance="10"
     inkscape:pageopacity="0"
     inkscape:pageshadow="2"
     inkscape:window-width="1920"
     inkscape:window-height="1174"
     id="namedview14"
     showgrid="false"
     inkscape:zoom="2.7467033"
     inkscape:cx="146.20724"
     inkscape:cy="145.8861"
     inkscape:window-x="0"
     inkscape:window-y="26"
     inkscape:window-maximized="0"
     inkscape:current-layer="g10"
     inkscape:document-rotation="0" />
  <g
     transform="translate(-805,-380.521)"
     id="g10">
    <path
       d="M25.3,2941.853c-14.434,78.753-64.509,145-144.085,145s-144.085-64.918-144.085-145,64.509-145,144.085-145,159.057,63.311,144.085,145"
       id="path2"
       transform="translate(1067.867 -2416.332)"
       opacity="0.158"
       style="fill:#1e4dea;fill-opacity:1;opacity:0.25" />
    <g
       transform="translate(832.689 396.996)"
       id="g8">
      <g
         id="g6"
         transform="translate(0)">
        <path
           d="M92.358,8.139S45.626,10.39,40.066,66.424c0,0-.546,15.118-10.562,21.283,0,0-15.577,10.092-7.782,36.976,0,0,3.339,16.819-11.121,26.348,0,0-12.238,10.654-4.443,25.785,0,0,5,5.052-3.9,14.005,0,0-7.782,14.005,5.56,33.063,0,0-1.663-13.992,1.663-17.356,0,0,11.68,13.992,8.9,23.534,0,0,18.916-10.654,46.16-12.893,0,0,32.817-6.178,29.491-48.194,0,0-30.6-24.1-29.491-45.392l3.9-31.374s12.8-15.681,13.9-21.845c0,0,8.9,13.442-2.235,23.534,0,0,19.475-4.49,12.8-32.5,0,0,4.443-10.092,7.236-9.516,0,0,9.458,24.646,37.274,26.335,0,0,4.43,28.01,21.683,30.824,0,0,.559,42.016-23.918,59.4,0,0-5.56,49.319,43.393,51.557,0,0-8.9,22.408,10.562,26.9,0,0-3.339-21.845,12.8-21.845l8.34,8.465s16.137-21.357,8.355-36.475c0,0-16.123-7.853-10-28.573,0,0,10-7.84-3.9-17.932,0,0-2.78-3.927,2.248-8.4,0,0,17.24-14.581-11.693-46.518l-1.1-29.136s-7.782-43.7-60.62-64.45C133.529,1.974,95.7-5.317,92.358,8.139Z"
           transform="translate(-0.003 -0.008)"
           id="path4" />
      </g>
    </g>
  </g>
</svg>
