<?xml version="1.0" encoding="UTF-8" standalone="no"?>
<svg
   xmlns:dc="http://purl.org/dc/elements/1.1/"
   xmlns:cc="http://creativecommons.org/ns#"
   xmlns:rdf="http://www.w3.org/1999/02/22-rdf-syntax-ns#"
   xmlns:svg="http://www.w3.org/2000/svg"
   xmlns="http://www.w3.org/2000/svg"
   xmlns:sodipodi="http://sodipodi.sourceforge.net/DTD/sodipodi-0.dtd"
   xmlns:inkscape="http://www.inkscape.org/namespaces/inkscape"
   width="290"
   height="290"
   viewBox="0 0 290 290"
   version="1.1"
   id="svg2516"
   sodipodi:docname="hand.svg"
   inkscape:version="1.0.1 (c497b03c, 2020-09-10)">
  <metadata
     id="metadata2520">
    <rdf:RDF>
      <cc:Work
         rdf:about="">
        <dc:format>image/svg+xml</dc:format>
        <dc:type
           rdf:resource="http://purl.org/dc/dcmitype/StillImage" />
      </cc:Work>
    </rdf:RDF>
  </metadata>
  <sodipodi:namedview
     pagecolor="#ffffff"
     bordercolor="#666666"
     borderopacity="1"
     objecttolerance="10"
     gridtolerance="10"
     guidetolerance="10"
     inkscape:pageopacity="0"
     inkscape:pageshadow="2"
     inkscape:window-width="1920"
     inkscape:window-height="1054"
     id="namedview2518"
     showgrid="false"
     inkscape:zoom="3.1517241"
     inkscape:cx="83.922319"
     inkscape:cy="145"
     inkscape:window-x="0"
     inkscape:window-y="26"
     inkscape:window-maximized="0"
     inkscape:current-layer="g2514" />
  <defs
     id="defs2486">
    <clipPath
       id="a">
      <path
         d="M24.876,2941.682C10.464,3020.342-39.538,3086.511-119,3086.511s-143.871-64.842-143.871-144.829S-198.454,2796.853-119,2796.853s158.821,63.237,143.872,144.829"
         transform="translate(262.867 -2796.853)"
         fill="#f6aa02"
         opacity="0.349"
         id="path2480" />
    </clipPath>
    <clipPath
       id="b">
      <rect
         width="90.903"
         height="104.151"
         fill="none"
         stroke="#d4d3cd"
         stroke-width="2"
         id="rect2483" />
    </clipPath>
  </defs>
  <g
     transform="translate(-1173.311 -417.583)"
     id="g2514"
     style="fill:#000000;fill-opacity:1">
    <path
       d="M25.3,2941.634c-14.434,78.634-64.509,144.781-144.085,144.781s-144.085-64.82-144.085-144.781,64.509-144.781,144.085-144.781S40.275,2860.068,25.3,2941.634"
       transform="translate(1436.178 -2378.832)"
       opacity="0.158"
       id="path2488"
       style="fill:#fda200;fill-opacity:1;opacity:0.25" />
    <g
       transform="translate(1173.533 417.583)"
       clip-path="url(#a)"
       id="g2512"
       style="fill:#000000;fill-opacity:1">
      <g
         transform="translate(69.362 102.001)"
         id="g2510"
         style="fill:#000000;fill-opacity:1">
        <path
           d="M183.232,216.091c-1.323-4.083-4.536-10.445-8.032-17.091h0s10.772,17.851,16.253,20.984l-5.386-1.234a3.88,3.88,0,0,1-2.929-2.564"
           transform="translate(-141.938 -148.771)"
           fill="#d4d3cd"
           id="path2490"
           style="fill:#000000;fill-opacity:1" />
        <path
           d="M166.419,243.755c-.378-3.418-1.228-9.4-2.835-18.705h0l-.189-.949c-.85-10.824-7.087-30.669-12.757-47.1h0c-4.914-14.053-9.355-25.542-9.638-26.491h0a3.306,3.306,0,0,1,6.237-1.709s10.489,16.142,13.8,24.117l.472,1.044c-2.173-4.842-2.079-14.527-2.079-14.527a2.646,2.646,0,1,1,5.292,0l3.969,10.445a22.736,22.736,0,0,0,1.984,3.988,124.3,124.3,0,0,0,46.68,43.3,6.9,6.9,0,0,1,1.512,1.044l4.347,4.083,3.213,2.659a77.38,77.38,0,0,1,30.71,43.772,126.166,126.166,0,0,1,3.685,19.845l14.93,100.553-45.168,5.6s-1.039-53.267-2.551-95.425a31.917,31.917,0,0,0-5.008-16.142c-13.7-21.079-42.522-26.491-42.522-26.491h-.945a14.4,14.4,0,0,1-13.135-12.723m6.8-47.38c3.5,6.647,6.709,13.1,8.032,17.091a3.88,3.88,0,0,0,2.929,2.564l5.386,1.234c-5.575-3.038-16.253-20.984-16.253-20.984Z"
           transform="translate(-140.055 -146.146)"
           id="path2492"
           style="fill:#000000;fill-opacity:1" />
        <g
           transform="translate(0 0)"
           id="g2508"
           style="fill:#000000;fill-opacity:1">
          <g
             clip-path="url(#b)"
             id="g2506"
             style="fill:#000000;fill-opacity:1">
            <path
               d="M151.3,178.5c5.67,16.426,11.812,36.271,12.757,47.1l.189.949"
               transform="translate(-140.622 -147.736)"
               fill="none"
               stroke="#d4d3cd"
               stroke-linecap="round"
               stroke-miterlimit="10"
               stroke-width="2"
               id="path2494"
               style="fill:#000000;fill-opacity:1" />
            <path
               d="M141,150.7c.378.855,4.819,12.344,9.638,26.491"
               transform="translate(-140.055 -146.332)"
               fill="none"
               stroke="#d4d3cd"
               stroke-linecap="round"
               stroke-miterlimit="10"
               stroke-width="2"
               id="path2496"
               style="fill:#000000;fill-opacity:1" />
            <path
               d="M230.013,243.376c-10.961-16.9-31.655-23.738-39.4-25.732l-1.039-.285-5.386-1.234a3.88,3.88,0,0,1-2.929-2.564c-1.323-4.083-4.536-10.445-8.032-17.091-4.441-8.451-9.26-17.186-11.528-22.029l-.189-.475-.472-1.044c-3.307-7.976-13.8-24.117-13.8-24.117A3.306,3.306,0,0,0,141,150.514"
               transform="translate(-140.055 -146.146)"
               fill="none"
               stroke="#d4d3cd"
               stroke-linecap="round"
               stroke-miterlimit="10"
               stroke-width="2"
               id="path2498"
               style="fill:#000000;fill-opacity:1" />
            <path
               d="M141,150.6h0c.945,1.9,27.592,56.306,31.844,75.581a17.14,17.14,0,0,0,1.984,5.127c1.039,1.8,2.362,3.7,3.4,3.7"
               transform="translate(-140.055 -146.327)"
               fill="none"
               stroke="#d4d3cd"
               stroke-linecap="round"
               stroke-miterlimit="10"
               stroke-width="2"
               id="path2500"
               style="fill:#000000;fill-opacity:1" />
            <path
               d="M151.2,178.4h.094c1.039,2.659,17.481,44.722,20.222,58.49a16.486,16.486,0,0,0,.85,2.943c.661,1.519,1.7,4.368,3.685,5.412"
               transform="translate(-140.617 -147.731)"
               fill="none"
               stroke="#d4d3cd"
               stroke-linecap="round"
               stroke-miterlimit="10"
               stroke-width="2"
               id="path2502"
               style="fill:#000000;fill-opacity:1" />
            <path
               d="M164.9,229.2h0c.283,1.424,5.008,23.833,9.638,24.212"
               transform="translate(-141.371 -150.296)"
               fill="none"
               stroke="#d4d3cd"
               stroke-linecap="round"
               stroke-miterlimit="10"
               stroke-width="2"
               id="path2504"
               style="fill:#000000;fill-opacity:1" />
          </g>
        </g>
      </g>
    </g>
  </g>
</svg>
