<svg xmlns="http://www.w3.org/2000/svg" xmlns:xlink="http://www.w3.org/1999/xlink" width="465.187" height="472.551" viewBox="0 0 465.187 472.551">
  <defs>
    <clipPath id="clip-path">
      <rect id="Rectangle_551" data-name="Rectangle 551" width="112.096" height="28.949" fill="none"/>
    </clipPath>
  </defs>
  <g id="Group_1687" data-name="Group 1687" transform="translate(-87.5 -305)">
    <g id="Group_1278" data-name="Group 1278" transform="translate(205 480.949)">
      <path id="Path_1767" data-name="Path 1767" d="M50.423-121.383v7.4a18.987,18.987,0,0,0-16.3-8.525c-12.913,0-22.19,10.656-22.19,23.193C11.934-86.656,21.211-76,34.124-76a19.284,19.284,0,0,0,16.3-8.525V-68.1c0,5.642-4.388,11.409-10.03,12.286l3.134,7.773c9.528-1,16.047-11.033,16.047-20.059v-53.282ZM50.3-95.808C49.42-89.539,43.4-83.9,35.88-83.9c-8.4,0-14.919-7.146-14.919-15.42s6.519-15.42,14.919-15.42c7.4,0,13.54,5.642,14.418,11.91Zm52.4,17.176v-8.149a9.077,9.077,0,0,1-6.519,2.507c-3.636,0-5.892-2.758-5.892-6.268v-75.6H81.138v76.476C81.138-82.518,85.777-76,93.424-76A15.15,15.15,0,0,0,102.7-78.632Zm29.587-43.879A23.329,23.329,0,0,0,109.1-99.193a23.41,23.41,0,0,0,23.193,23.319,23.41,23.41,0,0,0,23.193-23.319A23.329,23.329,0,0,0,132.289-122.511Zm0,38.614a15.117,15.117,0,0,1-14.919-15.3,15.012,15.012,0,0,1,14.794-15.3,18.647,18.647,0,0,1,4.513.627,6.438,6.438,0,0,0-1.881,4.639,7.385,7.385,0,0,0,7.4,7.271,7.2,7.2,0,0,0,4.764-1.755,18.459,18.459,0,0,1,.5,4.513A15.33,15.33,0,0,1,132.289-83.9Zm100.8-38.614a7.973,7.973,0,0,0-7.9,8.024,7.7,7.7,0,0,0,8.149,7.9v11.158c0,6.77-3.761,11.534-10.907,11.534-7.021,0-10.907-4.764-10.907-11.534v-25.952H202.5v26.077c0,6.645-3.385,11.409-10.406,11.409-6.9,0-10.28-4.764-10.28-11.409v-26.077h-9.152v26.7c0,11.659,7.9,18.805,19.432,18.805,6.645,0,12.537-3.26,14.919-9.653,2.257,6.268,8.4,9.653,14.919,9.653,11.534,0,19.432-7.146,19.432-18.805v-19.558A8.187,8.187,0,0,0,233.086-122.511Z" transform="translate(-11.934 166.14)" fill="#f6aa02"/>
      <path id="Path_1769" data-name="Path 1769" d="M12.769-63.073a4.207,4.207,0,0,0-1.2-1.022,3.47,3.47,0,0,0-1.754-.412,3.34,3.34,0,0,0-1.693.412,1.313,1.313,0,0,0-.717,1.2,1.374,1.374,0,0,0,.412,1.037,3.252,3.252,0,0,0,.976.64,5.723,5.723,0,0,0,1.2.366q.64.122,1.1.213a12.734,12.734,0,0,1,1.662.518,4.594,4.594,0,0,1,1.342.793,3.439,3.439,0,0,1,.884,1.189,4.1,4.1,0,0,1,.32,1.708,4.006,4.006,0,0,1-.518,2.089,4.371,4.371,0,0,1-1.342,1.418,5.647,5.647,0,0,1-1.876.793,9.354,9.354,0,0,1-2.12.244,8.377,8.377,0,0,1-3.156-.549,5.678,5.678,0,0,1-2.424-2.013L5.938-56.15a8.538,8.538,0,0,0,1.494,1.189,3.7,3.7,0,0,0,2.013.518,5.356,5.356,0,0,0,1.052-.107,3.246,3.246,0,0,0,.945-.335,2.07,2.07,0,0,0,.671-.579,1.324,1.324,0,0,0,.259-.808,1.393,1.393,0,0,0-.381-1.006,2.762,2.762,0,0,0-.915-.625,6.66,6.66,0,0,0-1.128-.366Q9.353-58.407,8.9-58.5q-.884-.213-1.677-.488a5.1,5.1,0,0,1-1.4-.732,3.381,3.381,0,0,1-.976-1.159,3.728,3.728,0,0,1-.366-1.738,3.94,3.94,0,0,1,.473-1.967A4.2,4.2,0,0,1,6.2-65.97a5.656,5.656,0,0,1,1.769-.823,7.453,7.453,0,0,1,2-.274,7.34,7.34,0,0,1,2.806.549,4.443,4.443,0,0,1,2.135,1.83ZM18.624-66.7h2.745v2.074h.061a5.229,5.229,0,0,1,2.181-1.8,6.736,6.736,0,0,1,2.851-.64,7.654,7.654,0,0,1,3.034.579,6.706,6.706,0,0,1,2.318,1.616,7.269,7.269,0,0,1,1.479,2.424,8.427,8.427,0,0,1,.518,2.973,8.515,8.515,0,0,1-.518,3,7.1,7.1,0,0,1-1.479,2.409,6.807,6.807,0,0,1-2.318,1.6,7.654,7.654,0,0,1-3.034.579,6.705,6.705,0,0,1-2.928-.656,5,5,0,0,1-2.1-1.784h-.061v10.674H18.624Zm7.5,2.2a4.96,4.96,0,0,0-1.982.381,4.377,4.377,0,0,0-1.494,1.037A4.573,4.573,0,0,0,21.7-61.5a5.937,5.937,0,0,0-.335,2.028,5.937,5.937,0,0,0,.335,2.028,4.573,4.573,0,0,0,.945,1.586,4.377,4.377,0,0,0,1.494,1.037,4.96,4.96,0,0,0,1.982.381,4.96,4.96,0,0,0,1.982-.381A4.377,4.377,0,0,0,29.6-55.86a4.573,4.573,0,0,0,.945-1.586,5.936,5.936,0,0,0,.335-2.028,5.936,5.936,0,0,0-.335-2.028,4.573,4.573,0,0,0-.945-1.586,4.377,4.377,0,0,0-1.494-1.037A4.96,4.96,0,0,0,26.127-64.506Zm11.192-.427A7.641,7.641,0,0,1,40-66.534a9.18,9.18,0,0,1,3.05-.534,8.361,8.361,0,0,1,2.729.4A5.308,5.308,0,0,1,47.657-65.6a4.213,4.213,0,0,1,1.083,1.54,4.8,4.8,0,0,1,.351,1.815v7.38q0,.762.03,1.4t.091,1.22h-2.44q-.091-1.1-.091-2.2h-.061a5.258,5.258,0,0,1-2.165,1.982,6.824,6.824,0,0,1-2.9.579,6.651,6.651,0,0,1-1.921-.274,4.689,4.689,0,0,1-1.6-.823,3.931,3.931,0,0,1-1.083-1.357,4.209,4.209,0,0,1-.4-1.876,4.168,4.168,0,0,1,.625-2.348A4.734,4.734,0,0,1,38.89-60.1a8.244,8.244,0,0,1,2.531-.854,17.572,17.572,0,0,1,3.1-.259h2.013v-.61a3.01,3.01,0,0,0-.213-1.1,2.964,2.964,0,0,0-.64-.991,3.05,3.05,0,0,0-1.067-.7,4.056,4.056,0,0,0-1.525-.259,5.624,5.624,0,0,0-1.388.152,6.142,6.142,0,0,0-1.083.381,4.752,4.752,0,0,0-.884.534q-.4.3-.762.579ZM45.065-59.2a19.221,19.221,0,0,0-2,.107,7.806,7.806,0,0,0-1.86.412,3.588,3.588,0,0,0-1.372.854,1.929,1.929,0,0,0-.534,1.4,1.989,1.989,0,0,0,.839,1.8,4.106,4.106,0,0,0,2.272.549,4.4,4.4,0,0,0,1.921-.381,3.611,3.611,0,0,0,1.281-.991,3.841,3.841,0,0,0,.7-1.357,5.365,5.365,0,0,0,.213-1.479V-59.2Zm18.359-3.66a5.762,5.762,0,0,0-1.6-1.2,4.49,4.49,0,0,0-2-.412,4.415,4.415,0,0,0-1.967.412,4.007,4.007,0,0,0-1.4,1.128,5.073,5.073,0,0,0-.854,1.647,6.474,6.474,0,0,0-.29,1.937,5.411,5.411,0,0,0,.335,1.906,4.8,4.8,0,0,0,.945,1.571,4.35,4.35,0,0,0,1.464,1.052,4.664,4.664,0,0,0,1.921.381,4.392,4.392,0,0,0,1.982-.412,5.079,5.079,0,0,0,1.525-1.2l1.952,1.952A6.143,6.143,0,0,1,62.952-52.4a8.679,8.679,0,0,1-3,.518,8.263,8.263,0,0,1-3.065-.549,7.079,7.079,0,0,1-2.394-1.54,6.807,6.807,0,0,1-1.555-2.379,8.263,8.263,0,0,1-.549-3.065,8.383,8.383,0,0,1,.549-3.08,7.046,7.046,0,0,1,1.54-2.409,6.988,6.988,0,0,1,2.379-1.571,8.149,8.149,0,0,1,3.1-.564,8.288,8.288,0,0,1,3.034.564A6.673,6.673,0,0,1,65.5-64.75Zm6.435,4.392a3.625,3.625,0,0,0,.412,1.723,4.286,4.286,0,0,0,1.083,1.327,5.01,5.01,0,0,0,1.555.854,5.574,5.574,0,0,0,1.83.3,4.093,4.093,0,0,0,2.226-.595A7.168,7.168,0,0,0,78.7-56.425l2.074,1.586a7.632,7.632,0,0,1-6.4,2.958,7.96,7.96,0,0,1-3.1-.579,6.74,6.74,0,0,1-2.348-1.6A7.1,7.1,0,0,1,67.45-56.47a8.515,8.515,0,0,1-.518-3,7.9,7.9,0,0,1,.564-3,7.448,7.448,0,0,1,1.555-2.409,7.1,7.1,0,0,1,2.364-1.6,7.6,7.6,0,0,1,2.989-.579,7.141,7.141,0,0,1,3.248.671,6.419,6.419,0,0,1,2.181,1.754,6.92,6.92,0,0,1,1.235,2.44,10.159,10.159,0,0,1,.381,2.76v.976Zm8.661-2.2a5.79,5.79,0,0,0-.29-1.677,3.691,3.691,0,0,0-.778-1.327,3.583,3.583,0,0,0-1.3-.884,4.742,4.742,0,0,0-1.815-.32,4.406,4.406,0,0,0-1.845.381,4.494,4.494,0,0,0-1.418.991,4.577,4.577,0,0,0-.9,1.357,3.733,3.733,0,0,0-.32,1.479Z" transform="translate(72.126 178.402)" fill="#f6aa02"/>
    </g>
    <g id="Group_1277" data-name="Group 1277" transform="translate(90 305)">
      <g id="Group_1276" data-name="Group 1276" transform="translate(107.593 64.295)" opacity="0.008">
        <path id="Path_1943" data-name="Path 1943" d="M84.335,89.969,83.13,88.62l9.039-8.07L93.374,81.9l-3.786,3.38,9.55,10.7-1.507,1.349-9.55-10.7Z" transform="translate(-83.13 -39.335)" fill="#fff" stroke="#fff" stroke-miterlimit="10" stroke-width="1"/>
        <path id="Path_1944" data-name="Path 1944" d="M103.984,91.728,94.63,78.549l1.651-1.166,3.865,5.437,6.589-4.677-3.865-5.437,1.651-1.166,9.354,13.179-1.651,1.166-4.441-6.262L101.193,84.3l4.441,6.262Z" transform="translate(-79.565 -42.128)" fill="#fff" stroke="#fff" stroke-miterlimit="10" stroke-width="1"/>
        <path id="Path_1945" data-name="Path 1945" d="M115.795,83.346,108,69.2l9.72-5.358.93,1.677L110.7,69.905l2.384,4.323,7.074-3.9.93,1.677-7.074,3.9,2.646,4.795,7.965-4.389.93,1.677Z" transform="translate(-75.42 -44.516)" fill="#fff" stroke="#fff" stroke-miterlimit="10" stroke-width="1"/>
        <path id="Path_1946" data-name="Path 1946" d="M134.9,73.5,129.78,58.172l6.3-2.109a5.159,5.159,0,0,1,3.917.066,4.453,4.453,0,0,1,2.4,2.817,4.534,4.534,0,0,1-.21,3.734,5.211,5.211,0,0,1-3.092,2.41l-4.389,1.467,2.109,6.3Zm-.76-8.659,4.389-1.467a3.1,3.1,0,0,0,1.86-1.467,2.943,2.943,0,0,0,.092-2.319,2.8,2.8,0,0,0-1.454-1.742,3.137,3.137,0,0,0-2.371-.052l-4.389,1.467Z" transform="translate(-68.667 -47.035)" fill="#fff" stroke="#fff" stroke-miterlimit="10" stroke-width="1"/>
        <path id="Path_1947" data-name="Path 1947" d="M147.568,69.1,144.11,53.312l1.978-.432L149.154,66.9l8.279-1.808.38,1.769Z" transform="translate(-64.224 -47.913)" fill="#fff" stroke="#fff" stroke-miterlimit="10" stroke-width="1"/>
        <path id="Path_1948" data-name="Path 1948" d="M158.16,66.936,161.632,50.3l2.594-.288,6.982,15.485-2,.223-2.135-4.638-5.817.629-1.087,4.978Zm3.485-7.061,4.651-.511-3.079-6.694Z" transform="translate(-59.869 -48.803)" fill="#fff" stroke="#fff" stroke-miterlimit="10" stroke-width="1"/>
        <path id="Path_1949" data-name="Path 1949" d="M172.17,57.37a9.625,9.625,0,0,1,1.913-6.079,5.859,5.859,0,0,1,4.873-2.2,5.957,5.957,0,0,1,4.061,1.585,5.653,5.653,0,0,1,1.9,3.878l-2.017-.039a3.773,3.773,0,0,0-1.258-2.568,4.069,4.069,0,0,0-2.725-1.048,3.955,3.955,0,0,0-3.511,2.017,8.41,8.41,0,0,0-1.218,4.493,8.07,8.07,0,0,0,1.1,4.454,3.933,3.933,0,0,0,3.419,2.07,3.835,3.835,0,0,0,4.1-3.851l2.017.026a5.382,5.382,0,0,1-1.716,4.113,6.158,6.158,0,0,1-4.441,1.493,5.934,5.934,0,0,1-4.795-2.332A9.294,9.294,0,0,1,172.17,57.37Z" transform="translate(-55.525 -49.089)" fill="#fff" stroke="#fff" stroke-miterlimit="10" stroke-width="1"/>
        <path id="Path_1950" data-name="Path 1950" d="M186.52,65.791,188.3,49.73l11.044,1.231-.21,1.9-9.026-1-.55,4.913,8.03.891-.21,1.9-8.03-.891-.6,5.437,9.026,1-.21,1.9Z" transform="translate(-51.076 -48.89)" fill="#fff" stroke="#fff" stroke-miterlimit="10" stroke-width="1"/>
        <path id="Path_1951" data-name="Path 1951" d="M210.32,55.3l.511-1.729,11.62,3.445-.511,1.729L217.08,57.3l-4.074,13.755-1.939-.576,4.074-13.755Z" transform="translate(-43.697 -47.7)" fill="#fff" stroke="#fff" stroke-miterlimit="10" stroke-width="1"/>
        <path id="Path_1952" data-name="Path 1952" d="M222.413,64.932a9.024,9.024,0,0,1,4.231-4.834,7.234,7.234,0,0,1,9.707,4.14,9.039,9.039,0,0,1-.563,6.406,8.751,8.751,0,0,1-4.192,4.742,6.635,6.635,0,0,1-5.725.013,6.741,6.741,0,0,1-3.982-4.153A8.7,8.7,0,0,1,222.413,64.932Zm1.86.786a7.26,7.26,0,0,0-.524,4.886,5.021,5.021,0,0,0,7.009,3,7.3,7.3,0,0,0,3.17-3.76,7.463,7.463,0,0,0,.563-4.965,4.937,4.937,0,0,0-7.022-3A7.438,7.438,0,0,0,224.273,65.718Z" transform="translate(-40.227 -45.882)" fill="#fff" stroke="#fff" stroke-miterlimit="10" stroke-width="1"/>
        <path id="Path_1953" data-name="Path 1953" d="M241.89,83.448l9.052-13.388,5.686,3.838a4.717,4.717,0,0,1,2.044,2.948,4.28,4.28,0,0,1-.655,3.472,3.863,3.863,0,0,1-1.559,1.349,3.607,3.607,0,0,1-1.991.288,4.359,4.359,0,0,1,.655,2.266,3.762,3.762,0,0,1-.642,2.227,4.019,4.019,0,0,1-3.157,1.808,5.579,5.579,0,0,1-3.747-1Zm2.686-.367,4.009,2.712a3.6,3.6,0,0,0,2.293.655,2.488,2.488,0,0,0,1.926-1.1,2.552,2.552,0,0,0,.327-2.24,3.43,3.43,0,0,0-1.428-1.926l-4.009-2.712Zm4.14-6.118,4.009,2.712a2.84,2.84,0,0,0,1.978.5,2.178,2.178,0,0,0,1.651-.983,2.618,2.618,0,0,0,.419-2.044,2.684,2.684,0,0,0-1.153-1.755L251.61,72.68Z" transform="translate(-33.91 -42.587)" fill="#fff" stroke="#fff" stroke-miterlimit="10" stroke-width="1"/>
        <path id="Path_1954" data-name="Path 1954" d="M253.35,91.334,263.817,79.02l8.463,7.192-1.245,1.454-6.917-5.882-3.2,3.76,6.157,5.24-1.245,1.454L259.677,87l-3.55,4.166,6.917,5.882L261.8,98.5Z" transform="translate(-30.357 -39.809)" fill="#fff" stroke="#fff" stroke-miterlimit="10" stroke-width="1"/>
      </g>
      <path id="Path_1955" data-name="Path 1955" d="M187.3,10.779C81.161,31.228,1,124.607,1,236.706a231.622,231.622,0,0,0,3.223,38.62l1.022,5.633C25.891,386.862,119.151,466.8,231.093,466.8s205.2-79.938,225.836-185.841l1.507-8.568a232.292,232.292,0,0,0,2.751-35.685c0-112.545-80.8-206.225-187.557-226.176" transform="translate(-1 3.252)" fill="none" stroke="#f6aa02" stroke-linecap="round" stroke-miterlimit="10" stroke-width="5"/>
      <path id="Path_1956" data-name="Path 1956" d="M164.732,16.267a15.559,15.559,0,0,0,2.869,8.371l.013.039,12.733,20.856,12.838-21.013v-.026a15.611,15.611,0,1,0-28.454-8.869,5.25,5.25,0,0,0,0,.642m15.6,3.6a4.258,4.258,0,1,1,4.258-4.258A4.257,4.257,0,0,1,180.335,19.87Z" transform="translate(49.759 -0.01)" fill="#f6aa02"/>
    </g>
    <g id="Group_1286" data-name="Group 1286" transform="matrix(0.996, 0.087, -0.087, 0.996, 262.536, 687.33)" opacity="0">
      <path id="Path_74" data-name="Path 74" d="M-824.875,642.675a4.859,4.859,0,0,1-2.008-.963q-2.824-2.018-.727-4.951l2.834-3.967-1.4-1,1.408-1.971,1.4,1,1.335-1.868,3.207,1.142-1.879,2.629,1.945,1.39-1.408,1.971-1.945-1.39-2.5,3.5q-.966,1.353.107,2.121a2.241,2.241,0,0,0,1.047.378Z" transform="translate(828.504 -620.201)" fill="#f6aa02"/>
      <path id="Path_75" data-name="Path 75" d="M-819.839,645.323a5.713,5.713,0,0,1-2.972-3.3,5.407,5.407,0,0,1,.585-4.285,5.4,5.4,0,0,1,3.354-2.884,5.967,5.967,0,0,1,4.468.718,5.657,5.657,0,0,1,2.949,3.288,5.3,5.3,0,0,1-.55,4.187,5.621,5.621,0,0,1-3.358,2.946A5.781,5.781,0,0,1-819.839,645.323Zm4.183-7.568a2.195,2.195,0,0,0-1.972-.155,3.532,3.532,0,0,0-1.643,1.686q-1.457,2.7.718,3.875,2.077,1.12,3.574-1.648Q-813.562,638.886-815.656,637.755Z" transform="translate(830.113 -618.518)" fill="#f6aa02"/>
      <path id="Path_76" data-name="Path 76" d="M-799.115,640.143a3.314,3.314,0,0,0-1.088-.6q-1.51-.466-2.015,1.174l-.333,1.083,2.325.716-.713,2.315-2.323-.714-2.418,7.857-3.129-.961,2.417-7.859-1.709-.525.713-2.313,1.708.524.388-1.261a3.832,3.832,0,0,1,2-2.452,4.519,4.519,0,0,1,3.407-.116,5.7,5.7,0,0,1,1.528.687Z" transform="translate(834.291 -617.913)" fill="#f6aa02"/>
      <path id="Path_77" data-name="Path 77" d="M-792.486,649.244l-6.829-1.25q-.254,2.31,2.456,2.805a5.7,5.7,0,0,0,3.186-.263l-.426,2.331a8.114,8.114,0,0,1-3.915.087,5.4,5.4,0,0,1-3.678-2.127,5.4,5.4,0,0,1-.683-4.177,5.688,5.688,0,0,1,2.27-3.853,5.127,5.127,0,0,1,4-.844,4.662,4.662,0,0,1,3.294,2.009,5.316,5.316,0,0,1,.576,3.919Zm-2.632-2.533q.412-2.247-1.408-2.581a1.767,1.767,0,0,0-1.463.4,2.971,2.971,0,0,0-.983,1.479Z" transform="translate(836.143 -616.41)" fill="#f6aa02"/>
      <path id="Path_78" data-name="Path 78" d="M-783.08,649.605l-6.935-.309q.062,2.323,2.813,2.445a5.707,5.707,0,0,0,3.121-.692l-.1,2.368a8.144,8.144,0,0,1-3.867.617,5.393,5.393,0,0,1-3.933-1.607,5.4,5.4,0,0,1-1.245-4.045,5.7,5.7,0,0,1,1.725-4.127,5.126,5.126,0,0,1,3.849-1.378,4.651,4.651,0,0,1,3.535,1.542,5.328,5.328,0,0,1,1.1,3.806Zm-2.951-2.149q.1-2.284-1.747-2.367a1.764,1.764,0,0,0-1.395.591,2.983,2.983,0,0,0-.774,1.6Z" transform="translate(838.866 -616.111)" fill="#f6aa02"/>
      <path id="Path_79" data-name="Path 79" d="M-779.833,654.737l-3.279.189-.91-15.73,3.279-.19Z" transform="translate(841.576 -617.247)" fill="#f6aa02"/>
      <path id="Path_80" data-name="Path 80" d="M-762.581,649.468a6.02,6.02,0,0,1-.567,4.866,6.945,6.945,0,0,1-4.434,2.768,7.852,7.852,0,0,1-3.456.221l-.663-2.683a6.533,6.533,0,0,0,3.448.135,3.576,3.576,0,0,0,2.293-1.47,3.152,3.152,0,0,0,.317-2.535l-.2-.819-.04.01a3.666,3.666,0,0,1-2.791,2.529,3.992,3.992,0,0,1-3.483-.617,5.832,5.832,0,0,1-2.08-3.448,6.486,6.486,0,0,1,.264-4.487,4.35,4.35,0,0,1,3.02-2.383,3.231,3.231,0,0,1,3.184.758l.04-.01-.3-1.2,3.189-.786Zm-4.081-3.008-.2-.816a2.586,2.586,0,0,0-.992-1.528,1.939,1.939,0,0,0-1.678-.32A2.01,2.01,0,0,0-771,645.034a4.012,4.012,0,0,0-.031,2.482,3.382,3.382,0,0,0,1.079,1.9,1.934,1.934,0,0,0,1.76.363,2.012,2.012,0,0,0,1.411-1.155A3.227,3.227,0,0,0-766.662,646.459Z" transform="translate(844.372 -616.862)" fill="#f6aa02"/>
      <path id="Path_81" data-name="Path 81" d="M-756.511,648.427a5.719,5.719,0,0,1-4.434.25,5.4,5.4,0,0,1-2.975-3.141,5.41,5.41,0,0,1-.147-4.42,5.964,5.964,0,0,1,3.357-3.031,5.653,5.653,0,0,1,4.411-.239,5.3,5.3,0,0,1,2.92,3.05,5.631,5.631,0,0,1,.194,4.464A5.8,5.8,0,0,1-756.511,648.427Zm-3.279-8a2.189,2.189,0,0,0-1.356,1.441,3.52,3.52,0,0,0,.285,2.338q1.19,2.824,3.47,1.866,2.176-.916.952-3.818Q-757.6,639.5-759.79,640.424Z" transform="translate(847.321 -617.689)" fill="#f6aa02"/>
      <path id="Path_82" data-name="Path 82" d="M-746.431,643.256a5.721,5.721,0,0,1-4.342.932,5.409,5.409,0,0,1-3.424-2.643,5.405,5.405,0,0,1-.828-4.345,5.962,5.962,0,0,1,2.849-3.516,5.647,5.647,0,0,1,4.32-.916,5.3,5.3,0,0,1,3.356,2.562,5.627,5.627,0,0,1,.88,4.381A5.779,5.779,0,0,1-746.431,643.256Zm-4.476-7.4a2.193,2.193,0,0,0-1.118,1.633,3.53,3.53,0,0,0,.643,2.264q1.613,2.608,3.716,1.308,2.007-1.238.352-3.919Q-748.882,634.606-750.907,635.856Z" transform="translate(850.049 -619.116)" fill="#f6aa02"/>
      <path id="Path_83" data-name="Path 83" d="M-733.355,634.152l-2.493,2.139-.954-1.114-.031.029a3.685,3.685,0,0,1-1.379,3.453,4.033,4.033,0,0,1-3.355,1.021,5.836,5.836,0,0,1-3.483-2.194,6.348,6.348,0,0,1-1.735-4.085,4.373,4.373,0,0,1,1.632-3.495,2.992,2.992,0,0,1,3.139-.745l.032-.027-4.12-4.806,2.493-2.139Zm-5.815-1.833-.52-.607a2.523,2.523,0,0,0-1.581-.918,1.989,1.989,0,0,0-1.638.5,1.976,1.976,0,0,0-.736,1.76,3.994,3.994,0,0,0,1.067,2.187,3.445,3.445,0,0,0,1.856,1.255,1.962,1.962,0,0,0,1.741-.493,1.975,1.975,0,0,0,.714-1.667A3.346,3.346,0,0,0-739.169,632.319Z" transform="translate(852.519 -622.189)" fill="#f6aa02"/>
    </g>
    <line id="Line_274" data-name="Line 274" x2="32.551" transform="translate(303.5 682)" fill="none" stroke="#f6aa02" stroke-linecap="round" stroke-miterlimit="10" stroke-width="5"/>
    <g id="Illustration_22" data-name="Illustration 22" transform="translate(322.047 707.869) rotate(3)">
      <g id="Illustration_22-2" data-name="Illustration 22" transform="translate(-57.6 -14.875)">
        <path id="Path_2017" data-name="Path 2017" d="M.973,8.146,3.99,9.508,0,18.363l2.433,1.07,3.99-8.758,3.114,1.362.876-1.946L1.849,6.2Z" transform="translate(0 -0.167)" fill="#f6aa02"/>
        <g id="Group_1292" data-name="Group 1292" clip-path="url(#clip-path)">
          <path id="Path_2018" data-name="Path 2018" d="M11.992,23.469A5.546,5.546,0,0,1,8.586,20.55a5.936,5.936,0,0,1-.1-4.573,6.325,6.325,0,0,1,3.016-3.795,5.644,5.644,0,0,1,4.671-.292,5.352,5.352,0,0,1,3.406,2.919,6.13,6.13,0,0,1,.1,4.671,6.228,6.228,0,0,1-3.016,3.795,5.546,5.546,0,0,1-4.573.292M15.4,14.128a2.725,2.725,0,0,0-2.433.292,4.379,4.379,0,0,0-1.654,2.335,4.281,4.281,0,0,0-.1,2.919,2.627,2.627,0,0,0,1.752,1.654,2.725,2.725,0,0,0,2.433-.292A4.281,4.281,0,0,0,17.052,18.7a4.671,4.671,0,0,0,.195-3.016,2.53,2.53,0,0,0-1.752-1.654" transform="translate(-0.218 -0.31)" fill="#f6aa02"/>
          <path id="Path_2019" data-name="Path 2019" d="M34.066,18.608l-4.087-.681-.487,2.822,3.795.681L32.9,23.571,29.1,22.89l-.876,4.573L25.6,26.977,27.741,15.3l6.714,1.168Z" transform="translate(-0.69 -0.412)" fill="#f6aa02"/>
          <path id="Path_2020" data-name="Path 2020" d="M42.3,29.252l-7.1-.681L36.368,16.7l6.714.681-.195,2.141L38.8,19.133l-.292,2.627,3.892.389-.195,2.141L38.314,23.9l-.292,2.725,4.476.389Z" transform="translate(-0.948 -0.45)" fill="#f6aa02"/>
          <path id="Path_2021" data-name="Path 2021" d="M52.1,29.466,45,29.271,45.195,17.4l6.811.195v2.141l-4.184-.1v2.627l3.795.1V24.5H47.725v2.725H52.1Z" transform="translate(-1.212 -0.469)" fill="#f6aa02"/>
          <path id="Path_2022" data-name="Path 2022" d="M61.882,28.782l-7.006.487L54,17.495l2.725-.195.681,9.633,4.379-.292Z" transform="translate(-1.455 -0.466)" fill="#f6aa02"/>
          <path id="Path_2023" data-name="Path 2023" d="M78.879,24.91a8.563,8.563,0,0,1-4.087,1.849,6.228,6.228,0,0,1-4.768-.584,5.741,5.741,0,0,1-2.53-3.892,6.13,6.13,0,0,1,.778-4.865,6.52,6.52,0,0,1,4.281-2.725A9.731,9.731,0,0,1,75.96,14.5l.487,2.433a6.617,6.617,0,0,0-3.406-.1,3.6,3.6,0,0,0-2.433,1.654,3.99,3.99,0,0,0-.389,3.016,3.99,3.99,0,0,0,1.557,2.53,3.308,3.308,0,0,0,2.725.487,3.5,3.5,0,0,0,1.46-.584L75.474,21.7l-2.335.487-.487-2.043,4.963-1.07Z" transform="translate(-1.813 -0.389)" fill="#f6aa02"/>
          <path id="Path_2024" data-name="Path 2024" d="M87.183,23.367a5.546,5.546,0,0,1-4.476-.195,5.936,5.936,0,0,1-2.919-3.6,6.422,6.422,0,0,1,.1-4.865,5.644,5.644,0,0,1,3.5-3.016,5.352,5.352,0,0,1,4.379.292,6.13,6.13,0,0,1,2.919,3.6,6.325,6.325,0,0,1-.1,4.768,5.546,5.546,0,0,1-3.5,3.016m-3.114-9.439a2.725,2.725,0,0,0-1.752,1.752,4.379,4.379,0,0,0,.1,2.919,4.281,4.281,0,0,0,1.654,2.335,2.792,2.792,0,0,0,4.087-1.362,4.282,4.282,0,0,0-.1-2.919,4.573,4.573,0,0,0-1.654-2.433,2.53,2.53,0,0,0-2.335-.292" transform="translate(-2.138 -0.306)" fill="#f6aa02"/>
          <path id="Path_2025" data-name="Path 2025" d="M100.264,17.976a5.546,5.546,0,0,1-4.476.292,5.936,5.936,0,0,1-3.308-3.211,6.422,6.422,0,0,1-.487-4.768,5.644,5.644,0,0,1,3.114-3.406,5.352,5.352,0,0,1,4.379-.292A6.13,6.13,0,0,1,102.794,9.9a6.228,6.228,0,0,1,.487,4.768,5.546,5.546,0,0,1-3.114,3.406M96.08,8.926a2.725,2.725,0,0,0-1.557,1.946,4.379,4.379,0,0,0,.487,2.919,4.281,4.281,0,0,0,1.946,2.141,2.627,2.627,0,0,0,2.433,0,2.725,2.725,0,0,0,1.557-1.849,4.281,4.281,0,0,0-.487-2.822,4.671,4.671,0,0,0-1.946-2.238,2.53,2.53,0,0,0-2.335,0" transform="translate(-2.472 -0.169)" fill="#f6aa02"/>
          <path id="Path_2026" data-name="Path 2026" d="M108.222,13.624,101.8,3.7l3.5-2.238q5.352-3.406,8.466,1.46a5.838,5.838,0,0,1,.973,4.671,6.325,6.325,0,0,1-3.016,3.892ZM105.3,3.991l4.087,6.325,1.07-.681A3.6,3.6,0,0,0,112.212,7.3a3.99,3.99,0,0,0-.681-2.919,3.6,3.6,0,0,0-2.238-1.752,3.7,3.7,0,0,0-2.822.681Z" transform="translate(-2.743 -0.002)" fill="#f6aa02"/>
        </g>
      </g>
    </g>
    <g id="Group_1298" data-name="Group 1298" transform="translate(199 369.295)">
      <path id="Path_1943-2" data-name="Path 1943" d="M84.335,89.969,83.13,88.62l9.039-8.07L93.374,81.9l-3.786,3.38,9.55,10.7-1.507,1.349-9.55-10.7Z" transform="translate(-83.13 -39.335)" fill="#f6aa02" stroke="#f6aa02" stroke-miterlimit="10" stroke-width="1"/>
      <path id="Path_1944-2" data-name="Path 1944" d="M103.984,91.728,94.63,78.549l1.651-1.166,3.865,5.437,6.589-4.677-3.865-5.437,1.651-1.166,9.354,13.179-1.651,1.166-4.441-6.262L101.193,84.3l4.441,6.262Z" transform="translate(-79.565 -42.128)" fill="#f6aa02" stroke="#f6aa02" stroke-miterlimit="10" stroke-width="1"/>
      <path id="Path_1945-2" data-name="Path 1945" d="M115.795,83.346,108,69.2l9.72-5.358.93,1.677L110.7,69.905l2.384,4.323,7.074-3.9.93,1.677-7.074,3.9,2.646,4.795,7.965-4.389.93,1.677Z" transform="translate(-75.42 -44.516)" fill="#f6aa02" stroke="#f6aa02" stroke-miterlimit="10" stroke-width="1"/>
      <path id="Path_1946-2" data-name="Path 1946" d="M134.9,73.5,129.78,58.172l6.3-2.109a5.159,5.159,0,0,1,3.917.066,4.453,4.453,0,0,1,2.4,2.817,4.534,4.534,0,0,1-.21,3.734,5.211,5.211,0,0,1-3.092,2.41l-4.389,1.467,2.109,6.3Zm-.76-8.659,4.389-1.467a3.1,3.1,0,0,0,1.86-1.467,2.943,2.943,0,0,0,.092-2.319,2.8,2.8,0,0,0-1.454-1.742,3.137,3.137,0,0,0-2.371-.052l-4.389,1.467Z" transform="translate(-68.667 -47.035)" fill="#f6aa02" stroke="#f6aa02" stroke-miterlimit="10" stroke-width="1"/>
      <path id="Path_1947-2" data-name="Path 1947" d="M147.568,69.1,144.11,53.312l1.978-.432L149.154,66.9l8.279-1.808.38,1.769Z" transform="translate(-64.224 -47.913)" fill="#f6aa02" stroke="#f6aa02" stroke-miterlimit="10" stroke-width="1"/>
      <path id="Path_1948-2" data-name="Path 1948" d="M158.16,66.936,161.632,50.3l2.594-.288,6.982,15.485-2,.223-2.135-4.638-5.817.629-1.087,4.978Zm3.485-7.061,4.651-.511-3.079-6.694Z" transform="translate(-59.869 -48.803)" fill="#f6aa02" stroke="#f6aa02" stroke-miterlimit="10" stroke-width="1"/>
      <path id="Path_1949-2" data-name="Path 1949" d="M172.17,57.37a9.625,9.625,0,0,1,1.913-6.079,5.859,5.859,0,0,1,4.873-2.2,5.957,5.957,0,0,1,4.061,1.585,5.653,5.653,0,0,1,1.9,3.878l-2.017-.039a3.773,3.773,0,0,0-1.258-2.568,4.069,4.069,0,0,0-2.725-1.048,3.955,3.955,0,0,0-3.511,2.017,8.41,8.41,0,0,0-1.218,4.493,8.07,8.07,0,0,0,1.1,4.454,3.933,3.933,0,0,0,3.419,2.07,3.835,3.835,0,0,0,4.1-3.851l2.017.026a5.382,5.382,0,0,1-1.716,4.113,6.158,6.158,0,0,1-4.441,1.493,5.934,5.934,0,0,1-4.795-2.332A9.294,9.294,0,0,1,172.17,57.37Z" transform="translate(-55.525 -49.089)" fill="#f6aa02" stroke="#f6aa02" stroke-miterlimit="10" stroke-width="1"/>
      <path id="Path_1950-2" data-name="Path 1950" d="M186.52,65.791,188.3,49.73l11.044,1.231-.21,1.9-9.026-1-.55,4.913,8.03.891-.21,1.9-8.03-.891-.6,5.437,9.026,1-.21,1.9Z" transform="translate(-51.076 -48.89)" fill="#f6aa02" stroke="#f6aa02" stroke-miterlimit="10" stroke-width="1"/>
      <path id="Path_1951-2" data-name="Path 1951" d="M210.32,55.3l.511-1.729,11.62,3.445-.511,1.729L217.08,57.3l-4.074,13.755-1.939-.576,4.074-13.755Z" transform="translate(-43.697 -47.7)" fill="#f6aa02" stroke="#f6aa02" stroke-miterlimit="10" stroke-width="1"/>
      <path id="Path_1952-2" data-name="Path 1952" d="M222.413,64.932a9.024,9.024,0,0,1,4.231-4.834,7.234,7.234,0,0,1,9.707,4.14,9.039,9.039,0,0,1-.563,6.406,8.751,8.751,0,0,1-4.192,4.742,6.635,6.635,0,0,1-5.725.013,6.741,6.741,0,0,1-3.982-4.153A8.7,8.7,0,0,1,222.413,64.932Zm1.86.786a7.26,7.26,0,0,0-.524,4.886,5.021,5.021,0,0,0,7.009,3,7.3,7.3,0,0,0,3.17-3.76,7.463,7.463,0,0,0,.563-4.965,4.937,4.937,0,0,0-7.022-3A7.438,7.438,0,0,0,224.273,65.718Z" transform="translate(-40.227 -45.882)" fill="#f6aa02" stroke="#f6aa02" stroke-miterlimit="10" stroke-width="1"/>
      <path id="Path_1953-2" data-name="Path 1953" d="M241.89,83.448l9.052-13.388,5.686,3.838a4.717,4.717,0,0,1,2.044,2.948,4.28,4.28,0,0,1-.655,3.472,3.863,3.863,0,0,1-1.559,1.349,3.607,3.607,0,0,1-1.991.288,4.359,4.359,0,0,1,.655,2.266,3.762,3.762,0,0,1-.642,2.227,4.019,4.019,0,0,1-3.157,1.808,5.579,5.579,0,0,1-3.747-1Zm2.686-.367,4.009,2.712a3.6,3.6,0,0,0,2.293.655,2.488,2.488,0,0,0,1.926-1.1,2.552,2.552,0,0,0,.327-2.24,3.43,3.43,0,0,0-1.428-1.926l-4.009-2.712Zm4.14-6.118,4.009,2.712a2.84,2.84,0,0,0,1.978.5,2.178,2.178,0,0,0,1.651-.983,2.618,2.618,0,0,0,.419-2.044,2.684,2.684,0,0,0-1.153-1.755L251.61,72.68Z" transform="translate(-33.91 -42.587)" fill="#f6aa02" stroke="#f6aa02" stroke-miterlimit="10" stroke-width="1"/>
      <path id="Path_1954-2" data-name="Path 1954" d="M253.35,91.334,263.817,79.02l8.463,7.192-1.245,1.454-6.917-5.882-3.2,3.76,6.157,5.24-1.245,1.454L259.677,87l-3.55,4.166,6.917,5.882L261.8,98.5Z" transform="translate(-30.357 -39.809)" fill="#f6aa02" stroke="#f6aa02" stroke-miterlimit="10" stroke-width="1"/>
    </g>
  </g>
</svg>
