<svg xmlns="http://www.w3.org/2000/svg" width="627.986" height="368.852" viewBox="0 0 627.986 368.852"><g transform="translate(-24012 -9008)"><path d="M117.285-43.631v20.247C106.99-38.827,90.861-46.72,72.674-46.72c-35.346,0-60.74,29.169-60.74,63.485,0,34.659,25.394,63.828,60.74,63.828,18.188,0,34.316-8.236,44.611-23.335v44.954c0,15.442-12.011,31.228-27.453,33.63l8.579,21.276c26.08-2.745,43.925-30.2,43.925-54.906V-43.631Zm-.343,70c-2.4,17.158-18.874,32.6-39.464,32.6-22.992,0-40.836-19.56-40.836-42.209S54.486-25.444,77.478-25.444c20.247,0,37.061,15.442,39.464,32.6ZM260.383,73.387V51.081a24.847,24.847,0,0,1-17.844,6.863c-9.952,0-16.129-7.55-16.129-17.158V-166.14H201.359V43.189c0,19.56,12.7,37.4,33.63,37.4C243.911,80.593,253.177,78.877,260.383,73.387ZM341.369-46.72c-35,0-63.485,28.826-63.485,63.828,0,34.659,28.482,63.828,63.485,63.828s63.485-29.169,63.485-63.828C404.854-17.894,376.372-46.72,341.369-46.72Zm0,105.694c-22.992,0-40.836-19.217-40.836-41.866s17.5-41.866,40.493-41.866a51.04,51.04,0,0,1,12.354,1.716,17.622,17.622,0,0,0-5.147,12.7c0,10.981,9.265,19.9,20.247,19.9a19.718,19.718,0,0,0,13.04-4.8,50.523,50.523,0,0,1,1.373,12.354C382.892,39.757,364.361,58.974,341.369,58.974ZM617.271-46.72a21.823,21.823,0,0,0-21.619,21.962c0,13.04,10.295,22.306,22.305,21.619V27.4c0,18.531-10.295,31.571-29.855,31.571-19.217,0-29.855-13.04-29.855-31.571V-43.631H533.54V27.746c0,18.188-9.265,31.228-28.482,31.228-18.874,0-28.139-13.04-28.139-31.228V-43.631H451.867V29.462c0,31.914,21.619,51.474,53.19,51.474,18.188,0,34.316-8.922,40.836-26.423,6.177,17.158,22.992,26.423,40.836,26.423,31.571,0,53.19-19.56,53.19-51.474V-24.071A22.41,22.41,0,0,0,617.271-46.72Z" transform="translate(24000.066 9174.14)" fill="#fff"/><path d="M28.239-56.133a11.515,11.515,0,0,0-3.3-2.8,9.5,9.5,0,0,0-4.8-1.127,9.143,9.143,0,0,0-4.633,1.127,3.593,3.593,0,0,0-1.962,3.3,3.762,3.762,0,0,0,1.127,2.838,8.9,8.9,0,0,0,2.671,1.753,15.664,15.664,0,0,0,3.3,1q1.753.334,3.005.584A34.852,34.852,0,0,1,28.2-48.036a12.574,12.574,0,0,1,3.673,2.17,9.413,9.413,0,0,1,2.421,3.256,11.214,11.214,0,0,1,.876,4.675,10.964,10.964,0,0,1-1.419,5.718,11.963,11.963,0,0,1-3.673,3.882,15.458,15.458,0,0,1-5.134,2.17,25.6,25.6,0,0,1-5.8.668A22.93,22.93,0,0,1,10.5-27a15.542,15.542,0,0,1-6.636-5.509L9.54-37.184a23.371,23.371,0,0,0,4.09,3.256,10.14,10.14,0,0,0,5.509,1.419,14.659,14.659,0,0,0,2.88-.292,8.883,8.883,0,0,0,2.588-.918,5.666,5.666,0,0,0,1.836-1.586,3.623,3.623,0,0,0,.71-2.212,3.813,3.813,0,0,0-1.043-2.755,7.56,7.56,0,0,0-2.5-1.711,18.229,18.229,0,0,0-3.089-1q-1.628-.376-2.88-.626-2.421-.584-4.591-1.336a13.956,13.956,0,0,1-3.84-2,9.255,9.255,0,0,1-2.671-3.172,10.206,10.206,0,0,1-1-4.758,10.784,10.784,0,0,1,1.294-5.384,11.5,11.5,0,0,1,3.423-3.8,15.481,15.481,0,0,1,4.842-2.254,20.4,20.4,0,0,1,5.468-.751,20.091,20.091,0,0,1,7.68,1.5,12.162,12.162,0,0,1,5.843,5.009Zm16.027-9.934h7.513v5.676h.167a14.312,14.312,0,0,1,5.969-4.925,18.437,18.437,0,0,1,7.8-1.753,20.95,20.95,0,0,1,8.306,1.586,18.356,18.356,0,0,1,6.344,4.424,19.9,19.9,0,0,1,4.049,6.636,23.065,23.065,0,0,1,1.419,8.139,23.308,23.308,0,0,1-1.419,8.222,19.437,19.437,0,0,1-4.049,6.595,18.632,18.632,0,0,1-6.344,4.382A20.951,20.951,0,0,1,65.72-25.5a18.353,18.353,0,0,1-8.014-1.795,13.7,13.7,0,0,1-5.76-4.883h-.167V-2.959H44.266ZM64.8-60.056a13.575,13.575,0,0,0-5.426,1.043,11.98,11.98,0,0,0-4.09,2.838A12.518,12.518,0,0,0,52.7-51.834a16.249,16.249,0,0,0-.918,5.551,16.249,16.249,0,0,0,.918,5.551,12.518,12.518,0,0,0,2.588,4.341,11.98,11.98,0,0,0,4.09,2.838A13.575,13.575,0,0,0,64.8-32.509a13.576,13.576,0,0,0,5.426-1.043,11.98,11.98,0,0,0,4.09-2.838,12.518,12.518,0,0,0,2.588-4.341,16.249,16.249,0,0,0,.918-5.551,16.249,16.249,0,0,0-.918-5.551,12.518,12.518,0,0,0-2.588-4.341,11.98,11.98,0,0,0-4.09-2.838A13.576,13.576,0,0,0,64.8-60.056Zm30.636-1.169a20.915,20.915,0,0,1,7.346-4.382,25.128,25.128,0,0,1,8.348-1.461,22.885,22.885,0,0,1,7.471,1.085,14.528,14.528,0,0,1,5.134,2.922,11.532,11.532,0,0,1,2.963,4.216,13.15,13.15,0,0,1,.96,4.967v20.2q0,2.087.083,3.84t.25,3.339h-6.678q-.25-3.005-.25-6.01H120.9a14.392,14.392,0,0,1-5.927,5.426,18.678,18.678,0,0,1-7.93,1.586,18.2,18.2,0,0,1-5.259-.751A12.836,12.836,0,0,1,97.4-28.5a10.759,10.759,0,0,1-2.963-3.715,11.521,11.521,0,0,1-1.085-5.134,11.407,11.407,0,0,1,1.711-6.428,12.957,12.957,0,0,1,4.675-4.216,22.565,22.565,0,0,1,6.929-2.337,48.1,48.1,0,0,1,8.473-.71h5.509v-1.67a8.239,8.239,0,0,0-.584-3.005,8.114,8.114,0,0,0-1.753-2.713,8.349,8.349,0,0,0-2.922-1.92,11.1,11.1,0,0,0-4.174-.71,15.392,15.392,0,0,0-3.8.417,16.813,16.813,0,0,0-2.963,1.043,13.009,13.009,0,0,0-2.421,1.461q-1.085.835-2.087,1.586Zm21.2,15.693a52.612,52.612,0,0,0-5.468.292,21.368,21.368,0,0,0-5.092,1.127,9.82,9.82,0,0,0-3.756,2.337,5.28,5.28,0,0,0-1.461,3.84,5.444,5.444,0,0,0,2.3,4.925,11.238,11.238,0,0,0,6.219,1.5,12.056,12.056,0,0,0,5.259-1.043,9.884,9.884,0,0,0,3.506-2.713,10.514,10.514,0,0,0,1.92-3.715,14.685,14.685,0,0,0,.584-4.049v-2.5Zm50.252-10.017a15.77,15.77,0,0,0-4.382-3.3,12.29,12.29,0,0,0-5.468-1.127,12.085,12.085,0,0,0-5.384,1.127,10.968,10.968,0,0,0-3.84,3.089,13.887,13.887,0,0,0-2.337,4.508,17.721,17.721,0,0,0-.793,5.3,14.81,14.81,0,0,0,.918,5.217,13.142,13.142,0,0,0,2.588,4.3,11.906,11.906,0,0,0,4.007,2.88,12.766,12.766,0,0,0,5.259,1.043,12.021,12.021,0,0,0,5.426-1.127,13.9,13.9,0,0,0,4.174-3.3l5.342,5.342a16.814,16.814,0,0,1-6.8,4.675,23.757,23.757,0,0,1-8.222,1.419,22.617,22.617,0,0,1-8.389-1.5,19.376,19.376,0,0,1-6.553-4.216,18.631,18.631,0,0,1-4.257-6.511,22.618,22.618,0,0,1-1.5-8.389,22.946,22.946,0,0,1,1.5-8.431,19.288,19.288,0,0,1,4.216-6.595,19.126,19.126,0,0,1,6.511-4.3,22.307,22.307,0,0,1,8.473-1.544,22.685,22.685,0,0,1,8.306,1.544,18.267,18.267,0,0,1,6.887,4.716Zm17.613,12.021a9.922,9.922,0,0,0,1.127,4.716A11.734,11.734,0,0,0,188.6-35.18a13.713,13.713,0,0,0,4.257,2.337,15.257,15.257,0,0,0,5.009.835,11.2,11.2,0,0,0,6.094-1.628,19.62,19.62,0,0,0,4.758-4.3l5.676,4.341q-6.261,8.1-17.53,8.1a21.789,21.789,0,0,1-8.473-1.586,18.448,18.448,0,0,1-6.428-4.382,19.437,19.437,0,0,1-4.049-6.595,23.309,23.309,0,0,1-1.419-8.222,21.622,21.622,0,0,1,1.544-8.222,20.386,20.386,0,0,1,4.257-6.595,19.429,19.429,0,0,1,6.469-4.382,20.816,20.816,0,0,1,8.181-1.586,19.545,19.545,0,0,1,8.89,1.836,17.57,17.57,0,0,1,5.969,4.8,18.941,18.941,0,0,1,3.381,6.678,27.808,27.808,0,0,1,1.043,7.555v2.671Zm23.707-6.01a15.846,15.846,0,0,0-.793-4.591,10.1,10.1,0,0,0-2.129-3.631,9.806,9.806,0,0,0-3.548-2.421,12.98,12.98,0,0,0-4.967-.876,12.061,12.061,0,0,0-5.05,1.043,12.3,12.3,0,0,0-3.882,2.713,12.529,12.529,0,0,0-2.463,3.715,10.218,10.218,0,0,0-.876,4.049Z" transform="translate(24216.137 9379.811)" fill="#fff"/></g></svg>