<?xml version="1.0" encoding="UTF-8" standalone="no"?>
<!-- Generator: Adobe Illustrator 19.0.0, SVG Export Plug-In . SVG Version: 6.00 Build 0)  -->

<svg
   xmlns:dc="http://purl.org/dc/elements/1.1/"
   xmlns:cc="http://creativecommons.org/ns#"
   xmlns:rdf="http://www.w3.org/1999/02/22-rdf-syntax-ns#"
   xmlns:svg="http://www.w3.org/2000/svg"
   xmlns="http://www.w3.org/2000/svg"
   xmlns:sodipodi="http://sodipodi.sourceforge.net/DTD/sodipodi-0.dtd"
   xmlns:inkscape="http://www.inkscape.org/namespaces/inkscape"
   version="1.1"
   id="Layer_1"
   x="0px"
   y="0px"
   viewBox="0 0 455 455"
   style="enable-background:new 0 0 455 455;"
   xml:space="preserve"
   sodipodi:docname="linkedin-logo.svg"
   enable-background="new"
   inkscape:version="0.92.2 5c3e80d, 2017-08-06"><metadata
     id="metadata43"><rdf:RDF><cc:Work
         rdf:about=""><dc:format>image/svg+xml</dc:format><dc:type
           rdf:resource="http://purl.org/dc/dcmitype/StillImage" /><dc:title></dc:title></cc:Work></rdf:RDF></metadata><defs
     id="defs41" /><sodipodi:namedview
     pagecolor="#ffffff"
     bordercolor="#666666"
     borderopacity="1"
     objecttolerance="10"
     gridtolerance="10"
     guidetolerance="10"
     inkscape:pageopacity="0"
     inkscape:pageshadow="2"
     inkscape:window-width="1920"
     inkscape:window-height="1035"
     id="namedview39"
     showgrid="false"
     inkscape:zoom="2.7218015"
     inkscape:cx="226.32677"
     inkscape:cy="227.49902"
     inkscape:window-x="0"
     inkscape:window-y="1"
     inkscape:window-maximized="1"
     inkscape:current-layer="g6" /><g
     id="g6"><path
       style="clip-rule:evenodd;fill-rule:evenodd"
       d="m 246.4,204.35 v -0.665 c -0.136,0.223 -0.324,0.446 -0.442,0.665 z"
       id="path2"
       inkscape:connector-curvature="0" /><path
       style="color:#000000;font-style:normal;font-variant:normal;font-weight:normal;font-stretch:normal;font-size:medium;line-height:normal;font-family:sans-serif;font-variant-ligatures:normal;font-variant-position:normal;font-variant-caps:normal;font-variant-numeric:normal;font-variant-alternates:normal;font-feature-settings:normal;text-indent:0;text-align:start;text-decoration:none;text-decoration-line:none;text-decoration-style:solid;text-decoration-color:#000000;letter-spacing:normal;word-spacing:normal;text-transform:none;writing-mode:lr-tb;direction:ltr;text-orientation:mixed;dominant-baseline:auto;baseline-shift:baseline;text-anchor:start;white-space:normal;shape-padding:0;clip-rule:evenodd;display:inline;overflow:visible;visibility:visible;opacity:1;isolation:auto;mix-blend-mode:normal;color-interpolation:sRGB;color-interpolation-filters:linearRGB;solid-color:#000000;solid-opacity:1;vector-effect:none;fill:#ffffff;fill-opacity:1;fill-rule:evenodd;stroke:none;stroke-width:1;stroke-linecap:butt;stroke-linejoin:miter;stroke-miterlimit:4;stroke-dasharray:none;stroke-dashoffset:0;stroke-opacity:1;color-rendering:auto;image-rendering:auto;shape-rendering:auto;text-rendering:auto;enable-background:accumulate"
       d="M 108.21094,76.498047 C 84.888231,76.498047 69.5,91.905244 69.5,112.08594 c 0,19.7509 14.94762,35.59961 37.82227,35.59961 h 0.44726 c 23.77181,0 38.69336,-15.8493 38.69336,-35.59961 v -0.006 -0.006 C 146.01575,91.914475 131.5386,76.498047 108.21094,76.498047 Z m -0.0837,33.232973 c -70.968521,236.54219 -35.484261,118.27109 0,0 z m 199.12864,59.90765 c -34.94455,0 -51.18805,18.67512 -60.35547,32.43945 v -27.67187 h -68.5625 l 0.0254,0.52539 c 0.44851,9.4424 0.45297,60.27641 0.33984,108.66797 C 178.59,331.99117 178.36328,378 178.36328,378 l -0.002,0.50391 h 68.53906 V 264.57617 c 0,-6.06058 0.47708,-12.0516 2.20313,-16.26953 v -0.002 c 4.83272,-12.01751 15.73774,-24.37891 34.17773,-24.37891 12.09246,0 20.43921,4.5627 25.84766,12.50586 5.40844,7.94316 7.84765,19.32814 7.84765,32.91406 v 109.1563 H 385.5 v -0.5 -116.46484 c 0,-31.27799 -8.35507,-54.26531 -22.33984,-69.42969 -13.98478,-15.16437 -33.57696,-22.46875 -55.9043,-22.46875 z m 0,1 c -204.83725,189.57422 -102.41863,94.78711 0,0 z m -233.740235,3.76758 v 204.0957 H 142.0215 v -0.5 -203.5957 z"
       id="path4"
       inkscape:connector-curvature="0"
       sodipodi:nodetypes="sssssccsccsccccscccsccssscccsssscccccccc" /></g><g
     id="g8" /><g
     id="g10" /><g
     id="g12" /><g
     id="g14" /><g
     id="g16" /><g
     id="g18" /><g
     id="g20" /><g
     id="g22" /><g
     id="g24" /><g
     id="g26" /><g
     id="g28" /><g
     id="g30" /><g
     id="g32" /><g
     id="g34" /><g
     id="g36" /></svg>